STARTFONT 2.1
COMMENT $XConsortium: lutBS18.bdf,v 1.9 94/04/02 16:11:18 gildea Exp $
COMMENT  (c) Copyright Bigelow & Holmes 1986, 1985. Lucida is a registered
COMMENT  trademark of Bigelow & Holmes. See LEGAL NOTICE file for terms 
COMMENT  of the license. 
COMMENT GRID 0018 0018 0200 0200
COMMENT  
COMMENT  Translation to ISO8859-2 by Cub Soft;  Petr.Kolar@vslib.cz
COMMENT  
FONT -B&H-LucidaTypewriter-Bold-R-Normal-Sans-18-180-75-75-M-110-ISO8859-2
SIZE 18 72 72
FONTBOUNDINGBOX 11 19 0 -3
STARTPROPERTIES 20
COMMENT Begin LogicalFontDescription
FONTNAME_REGISTRY ""
FOUNDRY "B&H"
FAMILY_NAME "LucidaTypewriter"
WEIGHT_NAME "Bold"
SLANT "R"
SETWIDTH_NAME "Normal"
ADD_STYLE_NAME "Sans"
PIXEL_SIZE 18
POINT_SIZE 180
RESOLUTION_X 75
RESOLUTION_Y 75
SPACING "M"
AVERAGE_WIDTH 110
CHARSET_REGISTRY "ISO8859"
CHARSET_ENCODING "2"
COMMENT END LogicalFontDescription
FONT_ASCENT 16
FONT_DESCENT 3
DEFAULT_CHAR 0
COPYRIGHT "Copyright Bigelow & Holmes 1986, 1985., Copyright 1996 Cub Soft"
FACE_NAME "Lucida Sans Typewriter Bold"
ENDPROPERTIES
CHARS 191
STARTCHAR space
ENCODING 32
SWIDTH 602 0
DWIDTH 11 0
BBX 1 1 0 0
BITMAP
00
ENDCHAR
STARTCHAR exclam
ENCODING 33
SWIDTH 602 0
DWIDTH 11 0
BBX 3 13 4 0
BITMAP
e0
e0
e0
e0
e0
60
40
40
00
00
e0
e0
e0
ENDCHAR
STARTCHAR quotedbl
ENCODING 34
SWIDTH 602 0
DWIDTH 11 0
BBX 8 5 2 9
BITMAP
e7
e7
e7
c6
c6
ENDCHAR
STARTCHAR numbersign
ENCODING 35
SWIDTH 602 0
DWIDTH 11 0
BBX 10 13 1 0
BITMAP
1980
1980
1980
7fc0
7fc0
3300
3300
ff80
ff80
6600
6600
6600
6600
ENDCHAR
STARTCHAR dollar
ENCODING 36
SWIDTH 602 0
DWIDTH 11 0
BBX 9 17 1 -2
BITMAP
0c00
0c00
3f00
7f80
e180
e000
f000
7c00
3e00
1f00
0780
0380
c380
ff00
7e00
1800
1800
ENDCHAR
STARTCHAR percent
ENCODING 37
SWIDTH 602 0
DWIDTH 11 0
BBX 11 13 0 0
BITMAP
7000
d840
d8c0
d980
db00
da00
75c0
0b60
1b60
3360
6360
4360
01c0
ENDCHAR
STARTCHAR ampersand
ENCODING 38
SWIDTH 602 0
DWIDTH 11 0
BBX 11 13 0 0
BITMAP
0e00
1f00
3b80
3b80
3b00
1e60
7c60
ee60
ef60
e7c0
f380
7fe0
1ee0
ENDCHAR
STARTCHAR apostrophe
ENCODING 39
SWIDTH 602 0
DWIDTH 11 0
BBX 4 5 3 9
BITMAP
f0
f0
f0
30
e0
ENDCHAR
STARTCHAR parenleft
ENCODING 40
SWIDTH 602 0
DWIDTH 11 0
BBX 7 16 2 -2
BITMAP
06
1e
38
70
70
e0
e0
e0
e0
e0
e0
70
70
38
1e
06
ENDCHAR
STARTCHAR parenright
ENCODING 41
SWIDTH 602 0
DWIDTH 11 0
BBX 7 16 2 -2
BITMAP
c0
f0
38
1c
1c
0e
0e
0e
0e
0e
0e
1c
1c
38
f0
c0
ENDCHAR
STARTCHAR asterisk
ENCODING 42
SWIDTH 602 0
DWIDTH 11 0
BBX 8 7 2 6
BITMAP
18
18
db
e7
18
66
66
ENDCHAR
STARTCHAR plus
ENCODING 43
SWIDTH 602 0
DWIDTH 11 0
BBX 10 10 1 1
BITMAP
0c00
0c00
0c00
0c00
ffc0
ffc0
0c00
0c00
0c00
0c00
ENDCHAR
STARTCHAR comma
ENCODING 44
SWIDTH 602 0
DWIDTH 11 0
BBX 4 5 3 -2
BITMAP
f0
f0
f0
30
e0
ENDCHAR
STARTCHAR minus
ENCODING 45
SWIDTH 602 0
DWIDTH 11 0
BBX 10 2 1 5
BITMAP
ffc0
ffc0
ENDCHAR
STARTCHAR period
ENCODING 46
SWIDTH 602 0
DWIDTH 11 0
BBX 4 3 4 0
BITMAP
f0
f0
f0
ENDCHAR
STARTCHAR slash
ENCODING 47
SWIDTH 602 0
DWIDTH 11 0
BBX 9 16 1 -2
BITMAP
0380
0380
0700
0700
0e00
0e00
0e00
1c00
1c00
3800
3800
3800
7000
7000
e000
e000
ENDCHAR
STARTCHAR zero
ENCODING 48
SWIDTH 602 0
DWIDTH 11 0
BBX 10 13 1 0
BITMAP
1e00
7f80
7380
e1c0
e1c0
e1c0
e1c0
e1c0
e1c0
e1c0
7380
7f80
1e00
ENDCHAR
STARTCHAR one
ENCODING 49
SWIDTH 602 0
DWIDTH 11 0
BBX 6 13 1 0
BITMAP
0c
fc
fc
1c
1c
1c
1c
1c
1c
1c
1c
1c
1c
ENDCHAR
STARTCHAR two
ENCODING 50
SWIDTH 602 0
DWIDTH 11 0
BBX 8 13 1 0
BITMAP
7c
fe
c7
07
07
0e
1c
38
70
e0
ff
ff
ff
ENDCHAR
STARTCHAR three
ENCODING 51
SWIDTH 602 0
DWIDTH 11 0
BBX 8 13 2 0
BITMAP
7c
fe
c7
07
0e
78
7c
0e
07
07
cf
fe
78
ENDCHAR
STARTCHAR four
ENCODING 52
SWIDTH 602 0
DWIDTH 11 0
BBX 10 13 0 0
BITMAP
0700
0f00
1f00
3700
3700
6700
c700
ffc0
ffc0
0700
0700
0700
0700
ENDCHAR
STARTCHAR five
ENCODING 53
SWIDTH 602 0
DWIDTH 11 0
BBX 8 13 2 0
BITMAP
ff
ff
ff
c0
c0
f8
fe
0f
07
07
c7
fe
78
ENDCHAR
STARTCHAR six
ENCODING 54
SWIDTH 602 0
DWIDTH 11 0
BBX 9 13 1 0
BITMAP
1f00
7f80
6180
e000
ee00
ff00
f780
e380
e380
e380
7380
7f00
1e00
ENDCHAR
STARTCHAR seven
ENCODING 55
SWIDTH 602 0
DWIDTH 11 0
BBX 9 13 1 0
BITMAP
ff80
ff80
ff80
0380
0380
0700
0e00
1c00
3800
3800
7000
7000
7000
ENDCHAR
STARTCHAR eight
ENCODING 56
SWIDTH 602 0
DWIDTH 11 0
BBX 9 13 1 0
BITMAP
3e00
7f00
e380
e380
f300
7e00
3e00
6f00
e780
e380
e380
7f00
3e00
ENDCHAR
STARTCHAR nine
ENCODING 57
SWIDTH 602 0
DWIDTH 11 0
BBX 9 13 1 0
BITMAP
3c00
7f00
e700
e380
e380
e380
f780
7f80
3b80
0380
6300
7f00
3c00
ENDCHAR
STARTCHAR colon
ENCODING 58
SWIDTH 602 0
DWIDTH 11 0
BBX 3 10 4 0
BITMAP
e0
e0
e0
00
00
00
00
e0
e0
e0
ENDCHAR
STARTCHAR semicolon
ENCODING 59
SWIDTH 602 0
DWIDTH 11 0
BBX 3 12 4 -2
BITMAP
e0
e0
e0
00
00
00
00
e0
e0
e0
60
c0
ENDCHAR
STARTCHAR less
ENCODING 60
SWIDTH 602 0
DWIDTH 11 0
BBX 10 10 0 1
BITMAP
00c0
03c0
0f00
3c00
e000
e000
3c00
0f00
03c0
00c0
ENDCHAR
STARTCHAR equal
ENCODING 61
SWIDTH 602 0
DWIDTH 11 0
BBX 10 6 1 3
BITMAP
ffc0
ffc0
0000
0000
ffc0
ffc0
ENDCHAR
STARTCHAR greater
ENCODING 62
SWIDTH 602 0
DWIDTH 11 0
BBX 10 10 1 1
BITMAP
c000
f000
3c00
0f00
01c0
01c0
0f00
3c00
f000
c000
ENDCHAR
STARTCHAR question
ENCODING 63
SWIDTH 602 0
DWIDTH 11 0
BBX 9 13 1 0
BITMAP
7e00
ff00
c380
0380
0700
1e00
3800
3000
0000
0000
3800
3800
3800
ENDCHAR
STARTCHAR at
ENCODING 64
SWIDTH 602 0
DWIDTH 11 0
BBX 11 13 0 0
BITMAP
0f00
3980
60c0
67c0
ccc0
ccc0
ccc0
ccc0
cfc0
6660
6000
3800
0f80
ENDCHAR
STARTCHAR A
ENCODING 65
SWIDTH 602 0
DWIDTH 11 0
BBX 11 13 0 0
BITMAP
0e00
0e00
1f00
1300
3380
3380
61c0
7fc0
7fc0
e0e0
e0e0
e0e0
e0e0
ENDCHAR
STARTCHAR B
ENCODING 66
SWIDTH 602 0
DWIDTH 11 0
BBX 9 13 1 0
BITMAP
fe00
ff00
e700
e700
e600
fc00
fe00
e700
e380
e380
e780
ff00
fc00
ENDCHAR
STARTCHAR C
ENCODING 67
SWIDTH 602 0
DWIDTH 11 0
BBX 10 13 0 0
BITMAP
0f80
3fc0
78c0
7000
e000
e000
e000
e000
f000
7000
7cc0
3fc0
0f00
ENDCHAR
STARTCHAR D
ENCODING 68
SWIDTH 602 0
DWIDTH 11 0
BBX 10 13 1 0
BITMAP
fc00
ff00
e780
e380
e1c0
e1c0
e1c0
e1c0
e1c0
e380
e780
ff00
fc00
ENDCHAR
STARTCHAR E
ENCODING 69
SWIDTH 602 0
DWIDTH 11 0
BBX 9 13 1 0
BITMAP
ff80
ff80
e000
e000
e000
ff00
ff00
e000
e000
e000
e000
ff80
ff80
ENDCHAR
STARTCHAR F
ENCODING 70
SWIDTH 602 0
DWIDTH 11 0
BBX 9 13 1 0
BITMAP
ff80
ff80
e000
e000
e000
ff00
ff00
e000
e000
e000
e000
e000
e000
ENDCHAR
STARTCHAR G
ENCODING 71
SWIDTH 602 0
DWIDTH 11 0
BBX 10 13 0 0
BITMAP
0f80
3fc0
78c0
7000
e000
e000
e000
e1c0
f1c0
71c0
79c0
3fc0
0fc0
ENDCHAR
STARTCHAR H
ENCODING 72
SWIDTH 602 0
DWIDTH 11 0
BBX 9 13 1 0
BITMAP
e380
e380
e380
e380
e380
ff80
ff80
e380
e380
e380
e380
e380
e380
ENDCHAR
STARTCHAR I
ENCODING 73
SWIDTH 602 0
DWIDTH 11 0
BBX 7 13 2 0
BITMAP
fe
fe
38
38
38
38
38
38
38
38
38
fe
fe
ENDCHAR
STARTCHAR J
ENCODING 74
SWIDTH 602 0
DWIDTH 11 0
BBX 9 13 1 0
BITMAP
3f80
3f80
0380
0380
0380
0380
0380
0380
0380
c380
c700
ff00
fc00
ENDCHAR
STARTCHAR K
ENCODING 75
SWIDTH 602 0
DWIDTH 11 0
BBX 10 13 1 0
BITMAP
e180
e380
e700
e600
ec00
f800
f800
fc00
ee00
e700
e780
e3c0
e1c0
ENDCHAR
STARTCHAR L
ENCODING 76
SWIDTH 602 0
DWIDTH 11 0
BBX 9 13 2 0
BITMAP
e000
e000
e000
e000
e000
e000
e000
e000
e000
e000
e000
ff80
ff80
ENDCHAR
STARTCHAR M
ENCODING 77
SWIDTH 602 0
DWIDTH 11 0
BBX 10 13 1 0
BITMAP
e1c0
e1c0
f1c0
f1c0
fbc0
dac0
dac0
dec0
dec0
ccc0
ccc0
c0c0
c0c0
ENDCHAR
STARTCHAR N
ENCODING 78
SWIDTH 602 0
DWIDTH 11 0
BBX 9 13 1 0
BITMAP
e180
e180
f180
f180
f980
dd80
dd80
cf80
cf80
c780
c380
c380
c180
ENDCHAR
STARTCHAR O
ENCODING 79
SWIDTH 602 0
DWIDTH 11 0
BBX 10 13 1 0
BITMAP
1e00
3f00
7380
7380
e1c0
e1c0
e1c0
e1c0
e1c0
7380
7380
3f00
1e00
ENDCHAR
STARTCHAR P
ENCODING 80
SWIDTH 602 0
DWIDTH 11 0
BBX 9 13 1 0
BITMAP
fe00
ff00
e780
e380
e380
e700
ff00
fc00
e000
e000
e000
e000
e000
ENDCHAR
STARTCHAR Q
ENCODING 81
SWIDTH 602 0
DWIDTH 11 0
BBX 10 15 1 -2
BITMAP
1e00
3f00
7380
7380
e1c0
e1c0
e1c0
e1c0
e1c0
7380
7380
3f00
1e00
0780
0380
ENDCHAR
STARTCHAR R
ENCODING 82
SWIDTH 602 0
DWIDTH 11 0
BBX 9 13 1 0
BITMAP
fe00
ff00
e780
e380
e380
e700
fc00
fe00
ee00
e700
e780
e380
e380
ENDCHAR
STARTCHAR S
ENCODING 83
SWIDTH 602 0
DWIDTH 11 0
BBX 9 13 1 0
BITMAP
3f00
7f80
e180
e000
f800
fe00
7f00
1f80
0780
0380
c380
ff00
7e00
ENDCHAR
STARTCHAR T
ENCODING 84
SWIDTH 602 0
DWIDTH 11 0
BBX 11 13 0 0
BITMAP
ffe0
ffe0
0e00
0e00
0e00
0e00
0e00
0e00
0e00
0e00
0e00
0e00
0e00
ENDCHAR
STARTCHAR U
ENCODING 85
SWIDTH 602 0
DWIDTH 11 0
BBX 10 13 1 0
BITMAP
e1c0
e1c0
e1c0
e1c0
e1c0
e1c0
e1c0
e1c0
e1c0
e1c0
7380
7f80
1e00
ENDCHAR
STARTCHAR V
ENCODING 86
SWIDTH 602 0
DWIDTH 11 0
BBX 11 13 0 0
BITMAP
e0e0
e0e0
e0e0
e0e0
70c0
70c0
71c0
3980
3980
1f00
1f00
0e00
0e00
ENDCHAR
STARTCHAR W
ENCODING 87
SWIDTH 602 0
DWIDTH 11 0
BBX 10 13 0 0
BITMAP
c0c0
c0c0
ccc0
ccc0
ccc0
eec0
6e80
7780
7780
7780
3300
3300
3300
ENDCHAR
STARTCHAR X
ENCODING 88
SWIDTH 602 0
DWIDTH 11 0
BBX 10 13 1 0
BITMAP
e0c0
f1c0
7180
7b80
3b00
1e00
1e00
1e00
3700
7780
6380
e3c0
c1c0
ENDCHAR
STARTCHAR Y
ENCODING 89
SWIDTH 602 0
DWIDTH 11 0
BBX 11 13 0 0
BITMAP
e0e0
e0e0
70c0
71c0
3980
3980
1f00
0e00
0e00
0e00
0e00
0e00
0e00
ENDCHAR
STARTCHAR Z
ENCODING 90
SWIDTH 602 0
DWIDTH 11 0
BBX 10 13 1 0
BITMAP
ffc0
ffc0
03c0
0780
0f00
0f00
1e00
3c00
3c00
7800
f000
ffc0
ffc0
ENDCHAR
STARTCHAR bracketleft
ENCODING 91
SWIDTH 602 0
DWIDTH 11 0
BBX 6 16 3 -2
BITMAP
fc
fc
e0
e0
e0
e0
e0
e0
e0
e0
e0
e0
e0
e0
fc
fc
ENDCHAR
STARTCHAR backslash
ENCODING 92
SWIDTH 602 0
DWIDTH 11 0
BBX 9 16 1 -2
BITMAP
e000
e000
7000
7000
3800
3800
3800
1c00
1c00
0e00
0e00
0e00
0700
0700
0380
0380
ENDCHAR
STARTCHAR bracketright
ENCODING 93
SWIDTH 602 0
DWIDTH 11 0
BBX 6 16 2 -2
BITMAP
fc
fc
1c
1c
1c
1c
1c
1c
1c
1c
1c
1c
1c
1c
fc
fc
ENDCHAR
STARTCHAR asciicircum
ENCODING 94
SWIDTH 602 0
DWIDTH 11 0
BBX 9 10 1 2
BITMAP
0800
1c00
1c00
3600
3600
6300
6300
c180
c180
c180
ENDCHAR
STARTCHAR underscore
ENCODING 95
SWIDTH 602 0
DWIDTH 11 0
BBX 11 2 0 -2
BITMAP
ffe0
ffe0
ENDCHAR
STARTCHAR grave
ENCODING 96
SWIDTH 602 0
DWIDTH 11 0
BBX 5 2 3 11
BITMAP
f0
38
ENDCHAR
STARTCHAR a
ENCODING 97
SWIDTH 602 0
DWIDTH 11 0
BBX 10 10 1 0
BITMAP
3e00
7f00
6380
0380
1f80
7f80
e380
e380
ffc0
79c0
ENDCHAR
STARTCHAR b
ENCODING 98
SWIDTH 602 0
DWIDTH 11 0
BBX 9 14 1 0
BITMAP
e000
e000
e000
e000
ee00
ff00
f780
e380
e380
e380
e380
e700
ff00
dc00
ENDCHAR
STARTCHAR c
ENCODING 99
SWIDTH 602 0
DWIDTH 11 0
BBX 9 10 1 0
BITMAP
1f00
7f80
7180
e000
e000
e000
e000
f180
7f80
1e00
ENDCHAR
STARTCHAR d
ENCODING 100
SWIDTH 602 0
DWIDTH 11 0
BBX 9 14 1 0
BITMAP
0380
0380
0380
0380
1b80
7f80
7780
e380
e380
e380
e380
f780
7f80
3980
ENDCHAR
STARTCHAR e
ENCODING 101
SWIDTH 602 0
DWIDTH 11 0
BBX 9 10 1 0
BITMAP
1e00
7f00
7380
e380
ff80
ff80
e000
f180
7f80
1f00
ENDCHAR
STARTCHAR f
ENCODING 102
SWIDTH 602 0
DWIDTH 11 0
BBX 9 14 1 0
BITMAP
0f80
1f80
3800
3800
3800
ff80
ff80
3800
3800
3800
3800
3800
3800
3800
ENDCHAR
STARTCHAR g
ENCODING 103
SWIDTH 602 0
DWIDTH 11 0
BBX 9 13 1 -3
BITMAP
1b80
7f80
7780
e380
e380
e380
f780
7f80
3b80
0380
6380
7f00
3e00
ENDCHAR
STARTCHAR h
ENCODING 104
SWIDTH 602 0
DWIDTH 11 0
BBX 9 14 1 0
BITMAP
e000
e000
e000
e000
ef00
ff80
f380
e380
e380
e380
e380
e380
e380
e380
ENDCHAR
STARTCHAR i
ENCODING 105
SWIDTH 602 0
DWIDTH 11 0
BBX 6 14 2 0
BITMAP
1c
1c
00
00
fc
fc
1c
1c
1c
1c
1c
1c
1c
1c
ENDCHAR
STARTCHAR j
ENCODING 106
SWIDTH 602 0
DWIDTH 11 0
BBX 7 17 1 -3
BITMAP
0e
0e
00
00
7e
7e
0e
0e
0e
0e
0e
0e
0e
0e
0c
fc
f0
ENDCHAR
STARTCHAR k
ENCODING 107
SWIDTH 602 0
DWIDTH 11 0
BBX 9 14 1 0
BITMAP
e000
e000
e000
e000
e180
e380
e700
ee00
fc00
fc00
ee00
e700
e780
e380
ENDCHAR
STARTCHAR l
ENCODING 108
SWIDTH 602 0
DWIDTH 11 0
BBX 6 14 2 0
BITMAP
fc
fc
1c
1c
1c
1c
1c
1c
1c
1c
1c
1c
1c
1c
ENDCHAR
STARTCHAR m
ENCODING 109
SWIDTH 602 0
DWIDTH 11 0
BBX 10 10 1 0
BITMAP
d980
ffc0
eec0
ccc0
ccc0
ccc0
ccc0
ccc0
ccc0
ccc0
ENDCHAR
STARTCHAR n
ENCODING 110
SWIDTH 602 0
DWIDTH 11 0
BBX 9 10 1 0
BITMAP
cf00
ff80
f380
e380
e380
e380
e380
e380
e380
e380
ENDCHAR
STARTCHAR o
ENCODING 111
SWIDTH 602 0
DWIDTH 11 0
BBX 10 10 1 0
BITMAP
1e00
7f80
7380
e1c0
e1c0
e1c0
e1c0
7380
7f80
1e00
ENDCHAR
STARTCHAR p
ENCODING 112
SWIDTH 602 0
DWIDTH 11 0
BBX 9 13 1 -3
BITMAP
ce00
ff00
f780
e380
e380
e380
e380
e700
ff00
ec00
e000
e000
e000
ENDCHAR
STARTCHAR q
ENCODING 113
SWIDTH 602 0
DWIDTH 11 0
BBX 9 13 1 -3
BITMAP
1b80
7f80
7780
e380
e380
e380
e380
f780
7f80
3b80
0380
0380
0380
ENDCHAR
STARTCHAR r
ENCODING 114
SWIDTH 602 0
DWIDTH 11 0
BBX 8 10 2 0
BITMAP
e7
ef
ff
f3
e3
e0
e0
e0
e0
e0
ENDCHAR
STARTCHAR s
ENCODING 115
SWIDTH 602 0
DWIDTH 11 0
BBX 9 10 1 0
BITMAP
3f00
7f80
e180
f000
7c00
1f00
0780
c380
ff00
7e00
ENDCHAR
STARTCHAR t
ENCODING 116
SWIDTH 602 0
DWIDTH 11 0
BBX 9 12 1 0
BITMAP
1800
3800
3800
ff80
ff80
3800
3800
3800
3800
3800
1f80
0f80
ENDCHAR
STARTCHAR u
ENCODING 117
SWIDTH 602 0
DWIDTH 11 0
BBX 9 10 1 0
BITMAP
e380
e380
e380
e380
e380
e380
e380
e780
ff80
7980
ENDCHAR
STARTCHAR v
ENCODING 118
SWIDTH 602 0
DWIDTH 11 0
BBX 10 10 1 0
BITMAP
e0c0
e0c0
e0c0
f180
7180
7b00
3b00
3e00
1e00
1c00
ENDCHAR
STARTCHAR w
ENCODING 119
SWIDTH 602 0
DWIDTH 11 0
BBX 11 10 0 0
BITMAP
e060
e660
e660
e660
ef40
6f40
7bc0
7b80
3180
3180
ENDCHAR
STARTCHAR x
ENCODING 120
SWIDTH 602 0
DWIDTH 11 0
BBX 9 10 1 0
BITMAP
e180
e300
7300
7600
3c00
1e00
3700
6700
6380
c380
ENDCHAR
STARTCHAR y
ENCODING 121
SWIDTH 602 0
DWIDTH 11 0
BBX 10 13 1 -3
BITMAP
e0c0
e0c0
e0c0
7180
7180
3b00
3b00
1e00
1e00
0c00
1c00
3800
3800
ENDCHAR
STARTCHAR z
ENCODING 122
SWIDTH 602 0
DWIDTH 11 0
BBX 9 10 1 0
BITMAP
ff80
ff80
0700
0e00
1c00
3800
7000
e000
ff80
ff80
ENDCHAR
STARTCHAR braceleft
ENCODING 123
SWIDTH 602 0
DWIDTH 11 0
BBX 8 16 2 -2
BITMAP
3f
7f
70
70
38
18
18
f0
f8
18
18
30
70
70
7f
3f
ENDCHAR
STARTCHAR bar
ENCODING 124
SWIDTH 602 0
DWIDTH 11 0
BBX 2 16 5 -2
BITMAP
c0
c0
c0
c0
c0
c0
c0
c0
c0
c0
c0
c0
c0
c0
c0
c0
ENDCHAR
STARTCHAR braceright
ENCODING 125
SWIDTH 602 0
DWIDTH 11 0
BBX 8 16 1 -2
BITMAP
fc
fe
0e
0e
1c
18
18
0f
1f
18
18
0c
0e
0e
fe
fc
ENDCHAR
STARTCHAR asciitilde
ENCODING 126
SWIDTH 602 0
DWIDTH 11 0
BBX 10 3 1 5
BITMAP
7cc0
dec0
cf80
ENDCHAR
STARTCHAR nobreakspace
ENCODING 160
SWIDTH 602 0
DWIDTH 11 0
BBX 1 1 0 0
BITMAP
00
ENDCHAR
STARTCHAR Aogonek
ENCODING 161
SWIDTH 602 0
DWIDTH 11 0
BBX 11 16 0 -3
BITMAP
0e00
0e00
1f00
1300
3380
3380
61c0
7fc0
7fc0
e0e0
e0e0
e0e0
e0e0
0600
0c00
0700
ENDCHAR
STARTCHAR breve
ENCODING 162
SWIDTH 602 0
DWIDTH 11 0
BBX 5 3 3 11
BITMAP
88
f8
70
ENDCHAR
STARTCHAR Lstroke
ENCODING 163
SWIDTH 602 0
DWIDTH 11 0
BBX 11 13 0 0
BITMAP
3800
3800
3800
3800
3b00
3f00
fc00
f800
3800
3800
3800
3fe0
3fe0
ENDCHAR
STARTCHAR currency
ENCODING 164
SWIDTH 602 0
DWIDTH 11 0
BBX 11 11 0 1
BITMAP
c060
4e40
3f80
3180
71c0
71c0
71c0
3180
3f80
4e40
c060
ENDCHAR
STARTCHAR Lcaron
ENCODING 165
SWIDTH 602 0
DWIDTH 11 0
BBX 9 14 2 0
BITMAP
0f00
ef00
ef00
e300
ee00
e000
e000
e000
e000
e000
e000
e000
ff80
ff80
ENDCHAR
STARTCHAR Sacute
ENCODING 166
SWIDTH 602 0
DWIDTH 11 0
BBX 9 16 1 0
BITMAP
0f00
1c00
0000
3f00
7f80
e180
e000
f800
fe00
7f00
1f80
0780
0380
c380
ff00
7e00
ENDCHAR
STARTCHAR section
ENCODING 167
SWIDTH 602 0
DWIDTH 11 0
BBX 9 15 1 -2
BITMAP
3f00
7f80
e180
f000
7c00
df00
c780
e380
f180
7d80
1f00
0780
c380
ff00
7e00
ENDCHAR
STARTCHAR diaeresis
ENCODING 168
SWIDTH 602 0
DWIDTH 11 0
BBX 6 2 3 11
BITMAP
cc
cc
ENDCHAR
STARTCHAR Scaron
ENCODING 169
SWIDTH 602 0
DWIDTH 11 0
BBX 9 16 1 0
BITMAP
3600
1c00
0000
3f00
7f80
e180
e000
f800
fe00
7f00
1f80
0780
0380
c380
ff00
7e00
ENDCHAR
STARTCHAR Scedilla
ENCODING 170
SWIDTH 602 0
DWIDTH 11 0
BBX 9 16 1 -3
BITMAP
3f00
7f80
e180
e000
f800
fe00
7f00
1f80
0780
0380
c380
ff00
7e00
0c00
0600
1c00
ENDCHAR
STARTCHAR Tcaron
ENCODING 171
SWIDTH 602 0
DWIDTH 11 0
BBX 11 16 0 0
BITMAP
1b00
0e00
0000
ffe0
ffe0
0e00
0e00
0e00
0e00
0e00
0e00
0e00
0e00
0e00
0e00
0e00
ENDCHAR
STARTCHAR Zacute
ENCODING 172
SWIDTH 602 0
DWIDTH 11 0
BBX 10 16 1 0
BITMAP
0f00
1c00
0000
ffc0
ffc0
03c0
0780
0f00
0f00
1e00
3c00
3c00
7800
f000
ffc0
ffc0
ENDCHAR
STARTCHAR hyphen
ENCODING 173
SWIDTH 602 0
DWIDTH 11 0
BBX 5 2 3 5
BITMAP
f8
f8
ENDCHAR
STARTCHAR Zcaron
ENCODING 174
SWIDTH 602 0
DWIDTH 11 0
BBX 10 16 1 0
BITMAP
3600
1c00
0000
ffc0
ffc0
03c0
0780
0f00
0f00
1e00
3c00
3c00
7800
f000
ffc0
ffc0
ENDCHAR
STARTCHAR Zabovedot
ENCODING 175
SWIDTH 602 0
DWIDTH 11 0
BBX 10 16 1 0
BITMAP
1c00
1c00
0000
ffc0
ffc0
03c0
0780
0f00
0f00
1e00
3c00
3c00
7800
f000
ffc0
ffc0
ENDCHAR
STARTCHAR degree
ENCODING 176
SWIDTH 602 0
DWIDTH 11 0
BBX 6 5 3 8
BITMAP
78
cc
cc
cc
78
ENDCHAR
STARTCHAR aogonek
ENCODING 177
SWIDTH 602 0
DWIDTH 11 0
BBX 10 13 1 -3
BITMAP
3e00
7f00
6380
0380
1f80
7f80
e380
e380
ffc0
79c0
0c00
1800
0e00
ENDCHAR
STARTCHAR ogonek
ENCODING 178
SWIDTH 602 0
DWIDTH 11 0
BBX 4 3 4 -3
BITMAP
60
c0
70
ENDCHAR
STARTCHAR lstroke
ENCODING 179
SWIDTH 602 0
DWIDTH 11 0
BBX 9 14 2 0
BITMAP
fc00
fc00
1c00
1c00
1d80
1f80
3e00
fc00
dc00
1c00
1c00
1c00
1c00
1c00
ENDCHAR
STARTCHAR acute
ENCODING 180
SWIDTH 602 0
DWIDTH 11 0
BBX 5 2 3 11
BITMAP
78
e0
ENDCHAR
STARTCHAR lcaron
ENCODING 181
SWIDTH 888 0
DWIDTH 16 0
BBX 11 15 2 0
BITMAP
01e0
fde0
fde0
1c60
1dc0
1c00
1c00
1c00
1c00
1c00
1c00
1c00
1c00
1c00
1c00
ENDCHAR
STARTCHAR sacute
ENCODING 182
SWIDTH 602 0
DWIDTH 11 0
BBX 9 13 1 0
BITMAP
0f00
1c00
0000
3f00
7f80
e180
f000
7c00
1f00
0780
c380
ff00
7e00
ENDCHAR
STARTCHAR caron
ENCODING 183
SWIDTH 602 0
DWIDTH 11 0
BBX 5 2 3 11
BITMAP
d8
70
ENDCHAR
STARTCHAR cedilla
ENCODING 184
SWIDTH 602 0
DWIDTH 11 0
BBX 4 3 4 -3
BITMAP
60
30
e0
ENDCHAR
STARTCHAR scaron
ENCODING 185
SWIDTH 602 0
DWIDTH 11 0
BBX 9 13 1 0
BITMAP
3600
1c00
0000
3f00
7f80
e180
f000
7c00
1f00
0780
c380
ff00
7e00
ENDCHAR
STARTCHAR scedilla
ENCODING 186
SWIDTH 602 0
DWIDTH 11 0
BBX 9 13 1 -3
BITMAP
3f00
7f80
e180
f000
7c00
1f00
0780
c380
ff00
7e00
0c00
0600
1c00
ENDCHAR
STARTCHAR tcaron
ENCODING 187
SWIDTH 666 0
DWIDTH 12 0
BBX 10 15 1 0
BITMAP
03c0
03c0
03c0
18c0
3b80
3800
ff80
ff80
3800
3800
3800
3800
3800
1f80
0f80
ENDCHAR
STARTCHAR zacute
ENCODING 188
SWIDTH 602 0
DWIDTH 11 0
BBX 9 13 1 0
BITMAP
0f00
1c00
0000
ff80
ff80
0700
0e00
1c00
3800
7000
e000
ff80
ff80
ENDCHAR
STARTCHAR doubleacute
ENCODING 189
SWIDTH 602 0
DWIDTH 11 0
BBX 5 3 3 11
BITMAP
48
d8
90
ENDCHAR
STARTCHAR zcaron
ENCODING 190
SWIDTH 602 0
DWIDTH 11 0
BBX 9 13 1 0
BITMAP
3600
1c00
0000
ff80
ff80
0700
0e00
1c00
3800
7000
e000
ff80
ff80
ENDCHAR
STARTCHAR zabovedot
ENCODING 191
SWIDTH 602 0
DWIDTH 11 0
BBX 9 13 1 0
BITMAP
1c00
1c00
0000
ff80
ff80
0700
0e00
1c00
3800
7000
e000
ff80
ff80
ENDCHAR
STARTCHAR Racute
ENCODING 192
SWIDTH 602 0
DWIDTH 11 0
BBX 9 16 1 0
BITMAP
0f00
1c00
0000
fe00
ff00
e780
e380
e380
e700
fc00
fe00
ee00
e700
e780
e380
e380
ENDCHAR
STARTCHAR Aacute
ENCODING 193
SWIDTH 602 0
DWIDTH 11 0
BBX 11 16 0 0
BITMAP
0f00
1c00
0000
0e00
0e00
1f00
1300
3380
3380
61c0
7fc0
7fc0
e0e0
e0e0
e0e0
e0e0
ENDCHAR
STARTCHAR Acircumflex
ENCODING 194
SWIDTH 602 0
DWIDTH 11 0
BBX 11 16 0 0
BITMAP
0e00
1b00
0000
0e00
0e00
1f00
1300
3380
3380
61c0
7fc0
7fc0
e0e0
e0e0
e0e0
e0e0
ENDCHAR
STARTCHAR Abreve
ENCODING 195
SWIDTH 602 0
DWIDTH 11 0
BBX 11 17 0 0
BITMAP
1100
1f00
0e00
0000
0e00
0e00
1f00
1300
3380
3380
61c0
7fc0
7fc0
e0e0
e0e0
e0e0
e0e0
ENDCHAR
STARTCHAR Adiaeresis
ENCODING 196
SWIDTH 602 0
DWIDTH 11 0
BBX 11 16 0 0
BITMAP
1b00
1b00
0000
0e00
0e00
1f00
1300
3380
3380
61c0
7fc0
7fc0
e0e0
e0e0
e0e0
e0e0
ENDCHAR
STARTCHAR Lacute
ENCODING 197
SWIDTH 602 0
DWIDTH 11 0
BBX 9 16 2 0
BITMAP
7800
e000
0000
e000
e000
e000
e000
e000
e000
e000
e000
e000
e000
e000
ff80
ff80
ENDCHAR
STARTCHAR Cacute
ENCODING 198
SWIDTH 602 0
DWIDTH 11 0
BBX 10 16 0 0
BITMAP
0780
0e00
0000
0f80
3fc0
78c0
7000
e000
e000
e000
e000
f000
7000
7cc0
3fc0
0f00
ENDCHAR
STARTCHAR Ccedilla
ENCODING 199
SWIDTH 602 0
DWIDTH 11 0
BBX 10 16 0 -3
BITMAP
0f80
3fc0
78c0
7000
e000
e000
e000
e000
f000
7000
7cc0
3fc0
0f00
0600
0300
0e00
ENDCHAR
STARTCHAR Ccaron
ENCODING 200
SWIDTH 602 0
DWIDTH 11 0
BBX 10 16 0 0
BITMAP
1b00
0e00
0000
0f80
3fc0
78c0
7000
e000
e000
e000
e000
f000
7000
7cc0
3fc0
0f00
ENDCHAR
STARTCHAR Eacute
ENCODING 201
SWIDTH 602 0
DWIDTH 11 0
BBX 9 16 1 0
BITMAP
1e00
3800
0000
ff80
ff80
e000
e000
e000
ff00
ff00
e000
e000
e000
e000
ff80
ff80
ENDCHAR
STARTCHAR Eogonek
ENCODING 202
SWIDTH 602 0
DWIDTH 11 0
BBX 9 16 1 -3
BITMAP
ff80
ff80
e000
e000
e000
ff00
ff00
e000
e000
e000
e000
ff80
ff80
0c00
1800
0e00
ENDCHAR
STARTCHAR Ediaeresis
ENCODING 203
SWIDTH 602 0
DWIDTH 11 0
BBX 9 16 1 0
BITMAP
3300
3300
0000
ff80
ff80
e000
e000
e000
ff00
ff00
e000
e000
e000
e000
ff80
ff80
ENDCHAR
STARTCHAR Ecaron
ENCODING 204
SWIDTH 602 0
DWIDTH 11 0
BBX 9 16 1 0
BITMAP
3600
1c00
0000
ff80
ff80
e000
e000
e000
ff00
ff00
e000
e000
e000
e000
ff80
ff80
ENDCHAR
STARTCHAR Iacute
ENCODING 205
SWIDTH 602 0
DWIDTH 11 0
BBX 7 16 2 0
BITMAP
3c
70
00
fe
fe
38
38
38
38
38
38
38
38
38
fe
fe
ENDCHAR
STARTCHAR Icircumflex
ENCODING 206
SWIDTH 602 0
DWIDTH 11 0
BBX 7 16 2 0
BITMAP
38
6c
00
fe
fe
38
38
38
38
38
38
38
38
38
fe
fe
ENDCHAR
STARTCHAR Dcaron
ENCODING 207
SWIDTH 602 0
DWIDTH 11 0
BBX 10 16 1 0
BITMAP
3600
1c00
0000
fc00
ff00
e780
e380
e1c0
e1c0
e1c0
e1c0
e1c0
e380
e780
ff00
fc00
ENDCHAR
STARTCHAR Dstroke
ENCODING 208
SWIDTH 602 0
DWIDTH 11 0
BBX 11 13 0 0
BITMAP
7e00
7f80
73c0
71c0
70e0
fce0
fce0
70e0
70e0
71c0
73c0
7f80
7e00
ENDCHAR
STARTCHAR Nacute
ENCODING 209
SWIDTH 602 0
DWIDTH 11 0
BBX 9 16 1 0
BITMAP
0f00
1c00
0000
e180
e180
f180
f180
f980
dd80
dd80
cf80
cf80
c780
c380
c380
c180
ENDCHAR
STARTCHAR Ncaron
ENCODING 210
SWIDTH 602 0
DWIDTH 11 0
BBX 9 16 1 0
BITMAP
3600
1c00
0000
e180
e180
f180
f180
f980
dd80
dd80
cf80
cf80
c780
c380
c380
c180
ENDCHAR
STARTCHAR Oacute
ENCODING 211
SWIDTH 602 0
DWIDTH 11 0
BBX 10 16 1 0
BITMAP
0f00
1c00
0000
1e00
3f00
7380
7380
e1c0
e1c0
e1c0
e1c0
e1c0
7380
7380
3f00
1e00
ENDCHAR
STARTCHAR Ocircumflex
ENCODING 212
SWIDTH 602 0
DWIDTH 11 0
BBX 10 16 1 0
BITMAP
0e00
1b00
0000
1e00
3f00
7380
7380
e1c0
e1c0
e1c0
e1c0
e1c0
7380
7380
3f00
1e00
ENDCHAR
STARTCHAR Odoubleacute
ENCODING 213
SWIDTH 602 0
DWIDTH 11 0
BBX 10 17 1 0
BITMAP
0900
1b00
1200
0000
1e00
3f00
7380
7380
e1c0
e1c0
e1c0
e1c0
e1c0
7380
7380
3f00
1e00
ENDCHAR
STARTCHAR Odiaeresis
ENCODING 214
SWIDTH 602 0
DWIDTH 11 0
BBX 10 16 1 0
BITMAP
3300
3300
0000
1e00
3f00
7380
7380
e1c0
e1c0
e1c0
e1c0
e1c0
7380
7380
3f00
1e00
ENDCHAR
STARTCHAR multiply
ENCODING 215
SWIDTH 602 0
DWIDTH 11 0
BBX 10 10 1 1
BITMAP
c0c0
e1c0
7380
3b00
0e00
1c00
3700
7380
e1c0
c0c0
ENDCHAR
STARTCHAR Rcaron
ENCODING 216
SWIDTH 602 0
DWIDTH 11 0
BBX 9 16 1 0
BITMAP
3600
1c00
0000
fe00
ff00
e780
e380
e380
e700
fc00
fe00
ee00
e700
e780
e380
e380
ENDCHAR
STARTCHAR Uring
ENCODING 217
SWIDTH 602 0
DWIDTH 11 0
BBX 10 17 1 0
BITMAP
1c00
2600
1c00
0000
e1c0
e1c0
e1c0
e1c0
e1c0
e1c0
e1c0
e1c0
e1c0
e1c0
7380
7f80
1e00
ENDCHAR
STARTCHAR Uacute
ENCODING 218
SWIDTH 602 0
DWIDTH 11 0
BBX 10 16 1 0
BITMAP
0f00
1c00
0000
e1c0
e1c0
e1c0
e1c0
e1c0
e1c0
e1c0
e1c0
e1c0
e1c0
7380
7f80
1e00
ENDCHAR
STARTCHAR Udoubleacute
ENCODING 219
SWIDTH 602 0
DWIDTH 11 0
BBX 10 17 1 0
BITMAP
0900
1b00
1200
0000
e1c0
e1c0
e1c0
e1c0
e1c0
e1c0
e1c0
e1c0
e1c0
e1c0
7380
7f80
1e00
ENDCHAR
STARTCHAR Udiaeresis
ENCODING 220
SWIDTH 602 0
DWIDTH 11 0
BBX 10 16 1 0
BITMAP
3300
3300
0000
e1c0
e1c0
e1c0
e1c0
e1c0
e1c0
e1c0
e1c0
e1c0
e1c0
7380
7f80
1e00
ENDCHAR
STARTCHAR Yacute
ENCODING 221
SWIDTH 602 0
DWIDTH 11 0
BBX 11 16 0 0
BITMAP
0f00
1c00
0000
e0e0
e0e0
70c0
71c0
3980
3980
1f00
0e00
0e00
0e00
0e00
0e00
0e00
ENDCHAR
STARTCHAR Tcedilla
ENCODING 222
SWIDTH 602 0
DWIDTH 11 0
BBX 11 16 0 -3
BITMAP
ffe0
ffe0
0e00
0e00
0e00
0e00
0e00
0e00
0e00
0e00
0e00
0e00
0e00
0600
0300
0e00
ENDCHAR
STARTCHAR ssharp
ENCODING 223
SWIDTH 602 0
DWIDTH 11 0
BBX 10 14 1 0
BITMAP
1e00
7f00
e700
e300
e600
ec00
ee00
ef00
e780
e3c0
e1c0
e1c0
e7c0
e780
ENDCHAR
STARTCHAR racute
ENCODING 224
SWIDTH 602 0
DWIDTH 11 0
BBX 8 13 2 0
BITMAP
1e
38
00
e7
ef
ff
f3
e3
e0
e0
e0
e0
e0
ENDCHAR
STARTCHAR aacute
ENCODING 225
SWIDTH 602 0
DWIDTH 11 0
BBX 10 13 1 0
BITMAP
0f00
1c00
0000
3e00
7f00
6380
0380
1f80
7f80
e380
e380
ffc0
79c0
ENDCHAR
STARTCHAR acircumflex
ENCODING 226
SWIDTH 602 0
DWIDTH 11 0
BBX 10 13 1 0
BITMAP
1c00
3600
0000
3e00
7f00
6380
0380
1f80
7f80
e380
e380
ffc0
79c0
ENDCHAR
STARTCHAR abreve
ENCODING 227
SWIDTH 602 0
DWIDTH 11 0
BBX 10 14 1 0
BITMAP
2200
3e00
1c00
0000
3e00
7f00
6380
0380
1f80
7f80
e380
e380
ffc0
79c0
ENDCHAR
STARTCHAR adiaeresis
ENCODING 228
SWIDTH 602 0
DWIDTH 11 0
BBX 10 13 1 0
BITMAP
3300
3300
0000
3e00
7f00
6380
0380
1f80
7f80
e380
e380
ffc0
79c0
ENDCHAR
STARTCHAR lacute
ENCODING 229
SWIDTH 602 0
DWIDTH 11 0
BBX 6 17 2 0
BITMAP
3c
70
00
fc
fc
1c
1c
1c
1c
1c
1c
1c
1c
1c
1c
1c
1c
ENDCHAR
STARTCHAR cacute
ENCODING 230
SWIDTH 602 0
DWIDTH 11 0
BBX 9 13 1 0
BITMAP
0f00
1c00
0000
1f00
7f80
7180
e000
e000
e000
e000
f180
7f80
1e00
ENDCHAR
STARTCHAR ccedilla
ENCODING 231
SWIDTH 602 0
DWIDTH 11 0
BBX 9 13 1 -3
BITMAP
1f00
7f80
7180
e000
e000
e000
e000
f180
7f80
1e00
0c00
0600
1c00
ENDCHAR
STARTCHAR ccaron
ENCODING 232
SWIDTH 602 0
DWIDTH 11 0
BBX 9 13 1 0
BITMAP
3600
1c00
0000
1f00
7f80
7180
e000
e000
e000
e000
f180
7f80
1e00
ENDCHAR
STARTCHAR eacute
ENCODING 233
SWIDTH 602 0
DWIDTH 11 0
BBX 9 13 1 0
BITMAP
0f00
1c00
0000
1e00
7f00
7380
e380
ff80
ff80
e000
f180
7f80
1f00
ENDCHAR
STARTCHAR eogonek
ENCODING 234
SWIDTH 602 0
DWIDTH 11 0
BBX 9 13 1 -3
BITMAP
1e00
7f00
7380
e380
ff80
ff80
e000
f180
7f80
1f00
0c00
1800
0e00
ENDCHAR
STARTCHAR ediaeresis
ENCODING 235
SWIDTH 602 0
DWIDTH 11 0
BBX 9 13 1 0
BITMAP
3300
3300
0000
1e00
7f00
7380
e380
ff80
ff80
e000
f180
7f80
1f00
ENDCHAR
STARTCHAR ecaron
ENCODING 236
SWIDTH 602 0
DWIDTH 11 0
BBX 9 13 1 0
BITMAP
3600
1c00
0000
1e00
7f00
7380
e380
ff80
ff80
e000
f180
7f80
1f00
ENDCHAR
STARTCHAR iacute
ENCODING 237
SWIDTH 602 0
DWIDTH 11 0
BBX 7 13 2 0
BITMAP
1e
38
00
fc
fc
1c
1c
1c
1c
1c
1c
1c
1c
ENDCHAR
STARTCHAR icircumflex
ENCODING 238
SWIDTH 602 0
DWIDTH 11 0
BBX 7 13 2 0
BITMAP
1c
36
00
fc
fc
1c
1c
1c
1c
1c
1c
1c
1c
ENDCHAR
STARTCHAR dcaron
ENCODING 239
SWIDTH 888 0
DWIDTH 16 0
BBX 14 15 1 0
BITMAP
003c
03bc
03bc
038c
03b8
1b80
7f80
7780
e380
e380
e380
e380
f780
7f80
3980
ENDCHAR
STARTCHAR dstroke
ENCODING 240
SWIDTH 777 0
DWIDTH 14 0
BBX 12 14 1 0
BITMAP
0380
1ff0
0380
0380
1b80
7f80
7780
e380
e380
e380
e380
f780
7f80
3980
ENDCHAR
STARTCHAR nacute
ENCODING 241
SWIDTH 602 0
DWIDTH 11 0
BBX 9 13 1 0
BITMAP
0f00
1c00
0000
cf00
ff80
f380
e380
e380
e380
e380
e380
e380
e380
ENDCHAR
STARTCHAR ncaron
ENCODING 242
SWIDTH 602 0
DWIDTH 11 0
BBX 9 13 1 0
BITMAP
3600
1c00
0000
cf00
ff80
f380
e380
e380
e380
e380
e380
e380
e380
ENDCHAR
STARTCHAR oacute
ENCODING 243
SWIDTH 602 0
DWIDTH 11 0
BBX 10 13 1 0
BITMAP
0f00
1c00
0000
1e00
7f80
7380
e1c0
e1c0
e1c0
e1c0
7380
7f80
1e00
ENDCHAR
STARTCHAR ocircumflex
ENCODING 244
SWIDTH 602 0
DWIDTH 11 0
BBX 10 13 1 0
BITMAP
0e00
1b00
0000
1e00
7f80
7380
e1c0
e1c0
e1c0
e1c0
7380
7f80
1e00
ENDCHAR
STARTCHAR odoubleacute
ENCODING 245
SWIDTH 602 0
DWIDTH 11 0
BBX 10 14 1 0
BITMAP
0900
1b00
1200
0000
1e00
7f80
7380
e1c0
e1c0
e1c0
e1c0
7380
7f80
1e00
ENDCHAR
STARTCHAR odiaeresis
ENCODING 246
SWIDTH 602 0
DWIDTH 11 0
BBX 10 13 1 0
BITMAP
3300
3300
0000
1e00
7f80
7380
e1c0
e1c0
e1c0
e1c0
7380
7f80
1e00
ENDCHAR
STARTCHAR division
ENCODING 247
SWIDTH 602 0
DWIDTH 11 0
BBX 10 10 1 1
BITMAP
0c00
0c00
0000
0000
ffc0
ffc0
0000
0000
0c00
0c00
ENDCHAR
STARTCHAR rcaron
ENCODING 248
SWIDTH 602 0
DWIDTH 11 0
BBX 8 13 2 0
BITMAP
6c
38
00
e7
ef
ff
f3
e3
e0
e0
e0
e0
e0
ENDCHAR
STARTCHAR uring
ENCODING 249
SWIDTH 602 0
DWIDTH 11 0
BBX 9 14 1 0
BITMAP
1c00
2600
1c00
0000
e380
e380
e380
e380
e380
e380
e380
e780
ff80
7980
ENDCHAR
STARTCHAR uacute
ENCODING 250
SWIDTH 602 0
DWIDTH 11 0
BBX 9 13 1 0
BITMAP
1e00
3800
0000
e380
e380
e380
e380
e380
e380
e380
e780
ff80
7980
ENDCHAR
STARTCHAR udoubleacute
ENCODING 251
SWIDTH 602 0
DWIDTH 11 0
BBX 9 14 1 0
BITMAP
0900
1b00
1200
0000
e380
e380
e380
e380
e380
e380
e380
e780
ff80
7980
ENDCHAR
STARTCHAR udiaeresis
ENCODING 252
SWIDTH 602 0
DWIDTH 11 0
BBX 9 13 1 0
BITMAP
3300
3300
0000
e380
e380
e380
e380
e380
e380
e380
e780
ff80
7980
ENDCHAR
STARTCHAR yacute
ENCODING 253
SWIDTH 602 0
DWIDTH 11 0
BBX 10 16 1 -3
BITMAP
0f00
1c00
0000
e0c0
e0c0
e0c0
7180
7180
3b00
3b00
1e00
1e00
0c00
1c00
3800
3800
ENDCHAR
STARTCHAR tcedilla
ENCODING 254
SWIDTH 602 0
DWIDTH 11 0
BBX 9 15 1 -3
BITMAP
1800
3800
3800
ff80
ff80
3800
3800
3800
3800
3800
1f80
0f80
0c00
0600
1c00
ENDCHAR
STARTCHAR abovedot
ENCODING 255
SWIDTH 602 0
DWIDTH 11 0
BBX 3 2 4 11
BITMAP
e0
e0
ENDCHAR
ENDFONT
